{
	"asset":{
		"generator":"Khronos glTF Blender I/O v4.5.47",
		"version":"2.0"
	},
	"scene":0,
	"scenes":[
		{
			"name":"Scene",
			"nodes":[
				0,
				1,
				2,
				3,
				4,
				5,
				6,
				7
			]
		}
	],
	"nodes":[
		{
			"mesh":0,
			"name":"Cube",
			"scale":[
				1.822445273399353,
				1.3756556510925293,
				1
			],
			"translation":[
				-0.06476134806871414,
				-0.8846774101257324,
				-0.028474977239966393
			]
		},
		{
			"mesh":1,
			"name":"\u7acb\u65b9\u4f53.001",
			"rotation":[
				0,
				-0.169559046626091,
				0,
				0.9855200052261353
			],
			"scale":[
				1.3644100427627563,
				0.7309621572494507,
				1
			],
			"translation":[
				1.6764979362487793,
				-1.1260935068130493,
				1.2167102098464966
			]
		},
		{
			"mesh":2,
			"name":"\u7acb\u65b9\u4f53.002",
			"rotation":[
				0,
				-0.7098281383514404,
				0,
				0.7043749690055847
			],
			"scale":[
				1.8048195838928223,
				0.7355373501777649,
				0.5942842960357666
			],
			"translation":[
				-1.4303202629089355,
				-1.0909507274627686,
				6.915762424468994
			]
		},
		{
			"mesh":3,
			"name":"\u7acb\u65b9\u4f53.003",
			"rotation":[
				0,
				-0.7098281383514404,
				0,
				0.7043749690055847
			],
			"scale":[
				1.8048195838928223,
				0.7355373501777649,
				0.5942842960357666
			],
			"translation":[
				-2.678724765777588,
				-1.0557217597961426,
				7.799540996551514
			]
		},
		{
			"mesh":4,
			"name":"\u7acb\u65b9\u4f53.004",
			"rotation":[
				0,
				-0.7098281383514404,
				0,
				0.7043749690055847
			],
			"scale":[
				1.8048195838928223,
				0.7355373501777649,
				0.5942842960357666
			],
			"translation":[
				-5.193574905395508,
				-1.042123794555664,
				7.873231887817383
			]
		},
		{
			"mesh":5,
			"name":"\u7acb\u65b9\u4f53.005",
			"rotation":[
				0,
				-0.7098281383514404,
				0,
				0.7043749690055847
			],
			"scale":[
				1.8048195838928223,
				0.7355373501777649,
				0.5942842960357666
			],
			"translation":[
				-3.891993284225464,
				-1.0574593544006348,
				6.89175271987915
			]
		},
		{
			"mesh":6,
			"name":"Cube.001",
			"rotation":[
				0,
				-0.4524221420288086,
				0,
				0.8918039202690125
			],
			"scale":[
				1.8224451541900635,
				1.3756556510925293,
				1
			],
			"translation":[
				5.151472091674805,
				-0.814243495464325,
				3.3440940380096436
			]
		},
		{
			"mesh":7,
			"name":"\u67f1\u4f53",
			"scale":[
				0.25220903754234314,
				0.7710055708885193,
				0.3896167278289795
			],
			"translation":[
				2.491041898727417,
				-1.1034679412841797,
				2.5548367500305176
			]
		}
	],
	"materials":[
		{
			"doubleSided":true,
			"name":"Material",
			"pbrMetallicRoughness":{
				"baseColorFactor":[
					0.800000011920929,
					0.800000011920929,
					0.800000011920929,
					1
				],
				"metallicFactor":0,
				"roughnessFactor":0.5
			}
		}
	],
	"meshes":[
		{
			"name":"Cube",
			"primitives":[
				{
					"attributes":{
						"POSITION":0,
						"NORMAL":1,
						"TEXCOORD_0":2
					},
					"indices":3,
					"material":0
				}
			]
		},
		{
			"name":"\u7acb\u65b9\u4f53.001",
			"primitives":[
				{
					"attributes":{
						"POSITION":4,
						"NORMAL":5,
						"TEXCOORD_0":6
					},
					"indices":7
				}
			]
		},
		{
			"name":"\u7acb\u65b9\u4f53.005",
			"primitives":[
				{
					"attributes":{
						"POSITION":8,
						"NORMAL":9,
						"TEXCOORD_0":10
					},
					"indices":11
				}
			]
		},
		{
			"name":"\u7acb\u65b9\u4f53.003",
			"primitives":[
				{
					"attributes":{
						"POSITION":12,
						"NORMAL":13,
						"TEXCOORD_0":14
					},
					"indices":11
				}
			]
		},
		{
			"name":"\u7acb\u65b9\u4f53.004",
			"primitives":[
				{
					"attributes":{
						"POSITION":15,
						"NORMAL":16,
						"TEXCOORD_0":17
					},
					"indices":11
				}
			]
		},
		{
			"name":"\u7acb\u65b9\u4f53.010",
			"primitives":[
				{
					"attributes":{
						"POSITION":18,
						"NORMAL":19,
						"TEXCOORD_0":20
					},
					"indices":11
				}
			]
		},
		{
			"name":"Cube.001",
			"primitives":[
				{
					"attributes":{
						"POSITION":21,
						"NORMAL":22,
						"TEXCOORD_0":23
					},
					"indices":3,
					"material":0
				}
			]
		},
		{
			"name":"\u67f1\u4f53",
			"primitives":[
				{
					"attributes":{
						"POSITION":24,
						"NORMAL":25,
						"TEXCOORD_0":26
					},
					"indices":27
				}
			]
		}
	],
	"accessors":[
		{
			"bufferView":0,
			"componentType":5126,
			"count":24,
			"max":[
				1.1148432493209839,
				1.2600154876708984,
				1.2213177680969238
			],
			"min":[
				-2.6470065116882324,
				-0.7399844527244568,
				-0.7786821126937866
			],
			"type":"VEC3"
		},
		{
			"bufferView":1,
			"componentType":5126,
			"count":24,
			"type":"VEC3"
		},
		{
			"bufferView":2,
			"componentType":5126,
			"count":24,
			"type":"VEC2"
		},
		{
			"bufferView":3,
			"componentType":5123,
			"count":36,
			"type":"SCALAR"
		},
		{
			"bufferView":4,
			"componentType":5126,
			"count":24,
			"max":[
				1,
				1,
				1
			],
			"min":[
				-1,
				-1,
				-1
			],
			"type":"VEC3"
		},
		{
			"bufferView":5,
			"componentType":5126,
			"count":24,
			"type":"VEC3"
		},
		{
			"bufferView":6,
			"componentType":5126,
			"count":24,
			"type":"VEC2"
		},
		{
			"bufferView":7,
			"componentType":5123,
			"count":36,
			"type":"SCALAR"
		},
		{
			"bufferView":8,
			"componentType":5126,
			"count":48,
			"max":[
				1,
				1.284672498703003,
				1
			],
			"min":[
				-1,
				-1,
				-1
			],
			"type":"VEC3"
		},
		{
			"bufferView":9,
			"componentType":5126,
			"count":48,
			"type":"VEC3"
		},
		{
			"bufferView":10,
			"componentType":5126,
			"count":48,
			"type":"VEC2"
		},
		{
			"bufferView":11,
			"componentType":5123,
			"count":84,
			"type":"SCALAR"
		},
		{
			"bufferView":12,
			"componentType":5126,
			"count":48,
			"max":[
				1,
				1.284672498703003,
				1
			],
			"min":[
				-1,
				-1,
				-1
			],
			"type":"VEC3"
		},
		{
			"bufferView":13,
			"componentType":5126,
			"count":48,
			"type":"VEC3"
		},
		{
			"bufferView":14,
			"componentType":5126,
			"count":48,
			"type":"VEC2"
		},
		{
			"bufferView":15,
			"componentType":5126,
			"count":48,
			"max":[
				1,
				1.284672498703003,
				1
			],
			"min":[
				-1,
				-1,
				-1
			],
			"type":"VEC3"
		},
		{
			"bufferView":16,
			"componentType":5126,
			"count":48,
			"type":"VEC3"
		},
		{
			"bufferView":17,
			"componentType":5126,
			"count":48,
			"type":"VEC2"
		},
		{
			"bufferView":18,
			"componentType":5126,
			"count":48,
			"max":[
				1,
				1.284672498703003,
				1
			],
			"min":[
				-1,
				-1,
				-1
			],
			"type":"VEC3"
		},
		{
			"bufferView":19,
			"componentType":5126,
			"count":48,
			"type":"VEC3"
		},
		{
			"bufferView":20,
			"componentType":5126,
			"count":48,
			"type":"VEC2"
		},
		{
			"bufferView":21,
			"componentType":5126,
			"count":24,
			"max":[
				1.1148432493209839,
				1.2600154876708984,
				1.2213177680969238
			],
			"min":[
				-2.6470065116882324,
				-0.7399844527244568,
				-0.7786821126937866
			],
			"type":"VEC3"
		},
		{
			"bufferView":22,
			"componentType":5126,
			"count":24,
			"type":"VEC3"
		},
		{
			"bufferView":23,
			"componentType":5126,
			"count":24,
			"type":"VEC2"
		},
		{
			"bufferView":24,
			"componentType":5126,
			"count":192,
			"max":[
				1,
				1,
				1
			],
			"min":[
				-1,
				-1,
				-1
			],
			"type":"VEC3"
		},
		{
			"bufferView":25,
			"componentType":5126,
			"count":192,
			"type":"VEC3"
		},
		{
			"bufferView":26,
			"componentType":5126,
			"count":192,
			"type":"VEC2"
		},
		{
			"bufferView":27,
			"componentType":5123,
			"count":372,
			"type":"SCALAR"
		}
	],
	"bufferViews":[
		{
			"buffer":0,
			"byteLength":288,
			"byteOffset":0,
			"target":34962
		},
		{
			"buffer":0,
			"byteLength":288,
			"byteOffset":288,
			"target":34962
		},
		{
			"buffer":0,
			"byteLength":192,
			"byteOffset":576,
			"target":34962
		},
		{
			"buffer":0,
			"byteLength":72,
			"byteOffset":768,
			"target":34963
		},
		{
			"buffer":0,
			"byteLength":288,
			"byteOffset":840,
			"target":34962
		},
		{
			"buffer":0,
			"byteLength":288,
			"byteOffset":1128,
			"target":34962
		},
		{
			"buffer":0,
			"byteLength":192,
			"byteOffset":1416,
			"target":34962
		},
		{
			"buffer":0,
			"byteLength":72,
			"byteOffset":1608,
			"target":34963
		},
		{
			"buffer":0,
			"byteLength":576,
			"byteOffset":1680,
			"target":34962
		},
		{
			"buffer":0,
			"byteLength":576,
			"byteOffset":2256,
			"target":34962
		},
		{
			"buffer":0,
			"byteLength":384,
			"byteOffset":2832,
			"target":34962
		},
		{
			"buffer":0,
			"byteLength":168,
			"byteOffset":3216,
			"target":34963
		},
		{
			"buffer":0,
			"byteLength":576,
			"byteOffset":3384,
			"target":34962
		},
		{
			"buffer":0,
			"byteLength":576,
			"byteOffset":3960,
			"target":34962
		},
		{
			"buffer":0,
			"byteLength":384,
			"byteOffset":4536,
			"target":34962
		},
		{
			"buffer":0,
			"byteLength":576,
			"byteOffset":4920,
			"target":34962
		},
		{
			"buffer":0,
			"byteLength":576,
			"byteOffset":5496,
			"target":34962
		},
		{
			"buffer":0,
			"byteLength":384,
			"byteOffset":6072,
			"target":34962
		},
		{
			"buffer":0,
			"byteLength":576,
			"byteOffset":6456,
			"target":34962
		},
		{
			"buffer":0,
			"byteLength":576,
			"byteOffset":7032,
			"target":34962
		},
		{
			"buffer":0,
			"byteLength":384,
			"byteOffset":7608,
			"target":34962
		},
		{
			"buffer":0,
			"byteLength":288,
			"byteOffset":7992,
			"target":34962
		},
		{
			"buffer":0,
			"byteLength":288,
			"byteOffset":8280,
			"target":34962
		},
		{
			"buffer":0,
			"byteLength":192,
			"byteOffset":8568,
			"target":34962
		},
		{
			"buffer":0,
			"byteLength":2304,
			"byteOffset":8760,
			"target":34962
		},
		{
			"buffer":0,
			"byteLength":2304,
			"byteOffset":11064,
			"target":34962
		},
		{
			"buffer":0,
			"byteLength":1536,
			"byteOffset":13368,
			"target":34962
		},
		{
			"buffer":0,
			"byteLength":744,
			"byteOffset":14904,
			"target":34963
		}
	],
	"buffers":[
		{
			"byteLength":15648,
			"uri":"%E7%94%9F%E7%A7%91%E9%99%A21.bin"
		}
	]
}
